<svg xmlns="http://www.w3.org/2000/svg" width="512" height="512" viewBox="0 0 60 60"><g id="Page-1" fill="none" fill-rule="evenodd"><g id="010---Cow" fill="#000" fill-rule="nonzero" transform="translate(0 -1)"><path style="fill:#785356" id="Shape" d="m51 49h-44c-.55228475 0-1 .4477153-1 1s.44771525 1 1 1h44c.5522847 0 1-.4477153 1-1s-.4477153-1-1-1z"/><path style="fill:#785356" id="Shape" d="m38 54h-24c-.5522847 0-1 .4477153-1 1s.4477153 1 1 1h24c.5522847 0 1-.4477153 1-1s-.4477153-1-1-1z"/><path style="fill:#785356" id="Shape" d="m28 59h-10c-.5522847 0-1 .4477153-1 1s.4477153 1 1 1h10c.5522847 0 1-.4477153 1-1s-.4477153-1-1-1z"/><path style="fill:#785356" id="Shape" d="m59 45h-17.167c-.1176736-.5220243-.3323999-1.0172857-.633-1.46-.489677-.7218687-1.2028912-1.2629278-2.03-1.54-.0911737-.0331306-.1565797-.1139263-.17-.21v-13.79c0-.5522847.4477153-1 1-1s1 .4477153 1 1v5h.03c1.0815561.0004868 1.9675534-.8589306 2-1.94.0216889-3.3756013.3463248-6.7424431.97-10.06.3782045-1.5763392 1.006138-3.0820292 1.86-4.46-.851031-.4997984-1.5494719-1.2224428-2.02-2.09-.1932607-.3211808-.1906728-.7234705.0067041-1.0421383.1973768-.3186678.5563928-.5001928.9300368-.4702434s.6991617.2663431.8432591.6123817c.3457493.5857697.8478528 1.0636338 1.45 1.38 2.74 1.5 7.17 1.91 9.43 2.03.8416722.0413705 1.6184014-.4510919 1.94-1.23l.4-.97c.357784-.8431273.09356-1.8215817-.64-2.37-.41-.31-.88-.69-1.4-1.12l-1.34 2.24c-.1790334.3047463-.5065578.491359-.86.49-.1822556-.002862-.3609434-.0509702-.52-.14-.4684632-.2871767-.6198346-.8971143-.34-1.37l1.55-2.59c-1.4153543-1.32564443-2.6319034-2.8486884-3.612-4.522 1.296495-.63265059 2.3910865-1.61400851 3.161-2.834.199516-.29979397.222431-.68370934.0599924-1.0051075s-.4851399-.53063477-.8448464-.54779076c-.3597065-.01715598-.7008565.16041864-.893146.46489826-.7927911 1.29591372-2.0780668 2.21412246-3.561 2.544h-1.39c-.7185482.00251904-1.381441.38730162-1.74 1.01-1.0546433 1.75021827-2.4650799 3.2594535-4.14 4.43l-1.56 5.47c-.4311038 1.4992643-1.7999972 2.5340825-3.36 2.54-.3586496.0020633-.705301.1294046-.98.36-.2655946.2290855-.4425129.5440002-.5.89l-.16.96c-.3612762 2.1912816-2.0787184 3.9087238-4.27 4.27-.2812519.0439906-.5653406.0673861-.85.07-1.9609445.0022766-3.7542539-1.1054696-4.63-2.86-.1649645-.3356807-.5059767-.5488133-.88-.55h-.11l-4.26.48c-2.4352584.2627971-4.7246325-1.2065648-5.5-3.53-.1802121-.5279392-.2714545-1.0821522-.27-1.64-.0079029-1.5832147.7153831-3.08145 1.96-4.06l1.11-.89c-1.76-.18-3.49-.38-5.13-.57h-.01l-1.07 3.2c-.677409 2.0427073-2.5878999 3.4211628-4.74 3.42h-2.5c.6924555 3.9698342 1.15323487 7.9766114 1.38 12 .06 1.21.02 4.4.01 5.56-.01041576.2745257.04084091.5478946.15.8 1.18726646 3.0762511 1.80564503 6.3426453 1.825 9.64h-6.985c-.55228475 0-1 .4477153-1 1s.44771525 1 1 1h58c.5522847 0 1-.4477153 1-1s-.4477153-1-1-1zm-44.79-1.43c-.5091336-.7070338-1.2255491-1.2382296-2.05-1.52-.0974492-.0237967-.1670156-.1097317-.17-.21l-.609-6.035c.5304036.1268681 1.0736413.1922982 1.619.195.2827868-.0075937.564911-.0312988.845-.071l.262.521c.2507784.4889357.8490836.6839257 1.3397978.4366453.4907141-.2472803.6899718-.8441778.4462022-1.3366453l-.066-.13c.4997066-.2012981.976973-.4543432 1.424-.755l.042.042c.3888724.3349285.9681591.3210995 1.3406066-.0320034.3724474-.3531029.4171246-.9308297.1033934-1.3369966.4486367-.5174991.8143145-1.1014366 1.084-1.731 1.3758841.2736411 2.7762226.4053312 4.179.393 1.3564139-.0003097 2.7084067-.1546315 4.03-.46l-.01-.23c-.01-.34-.02-.69-.02-.81-.0022928-.8310235-.4162412-1.6069053-1.1052223-2.0715669-.6889811-.4646617-1.5634454-.5577095-2.3347777-.2484331-.4030683.1713145-.8708004.0574319-1.15-.28-.470256-.5702579-1.1708555-.9003833-1.91-.9-1.336213.0766915-2.5102045.9124801-3.02 2.15-.2444704.4808795-.3970812 1.0031476-.45 1.54-.8662034 2.0079906-2.8431453 3.3089206-5.03 3.31-.6286755-.0080521-1.2508286-.1286218-1.837-.356l-.123-1.214c-.024797-.2757052.0698761-.5488007.26-.75 1.0187205-1.2582317 1.7369452-2.7323024 2.1-4.31.1617857-.9016734.2553841-1.8142579.28-2.73 0-.5522847.4477153-1 1-1s1 .4477153 1 1c-.034445 1.5555897-.2458048 3.1022069-.63 4.61l-.03.09c.3273735.3053387.6822095.5798345 1.06.82.36-2.24 2.19-5.16 5.42-5.16 1.0906078-.0021744 2.1440062.3964088 2.96 1.12 1.3391552-.315329 2.7489977-.0017366 3.8282246.851515s1.7096324 2.1527073 1.7117754 3.528485c0 .08 0 .26.01.46.47-.16.9-.33 1.3-.51-.0079537-.0117335-.0114964-.025904-.01-.04-.1289476-.8778326-.2024266-1.7629212-.22-2.65 0-.5522847.4477153-1 1-1s1 .4477153 1 1c0 .01.01.75.12 1.74h.01c.1589343 1.3482392.5874322 2.6507368 1.26 3.83.3375327.5034009.5216516 1.093971.53 1.7v9.97h-20.136c-.124807-.5140133-.346797-.9994042-.654-1.43z"/><path style="fill:#785356" id="Shape" d="m1 31c.55228475 0 1-.4477153 1-1 0-8.927 0-13.623 1.976-16.523.092.479.187.985.284 1.523h2.86c1.2905259.0031953 2.43665928-.8241193 2.84-2.05l.95-2.83c-1.88-.24-3.59-.47-5.03-.69-.95054267-.14141673-1.86587056.41839495-2.173 1.329-3.707 3.341-3.707 8.588-3.707 19.241 0 .5522847.44771525 1 1 1z"/><path style="fill:#785356" id="Shape" d="m17 15.9c.0067761.9081183.3955335 1.7714311 1.0710242 2.3784214.6754907.6069902 1.5753025.9015748 2.4789758.8115786l4.26-.48c.1089896-.0182621.2196027-.0249659.33-.02 1.1287402-.0021588 2.1604573.6378161 2.66 1.65.6327779 1.2413673 1.994512 1.9323362 3.37 1.71 1.3437942-.215934 2.3989288-1.2670413 2.62-2.61l.16-.96c.2793868-1.6926498 1.7444507-2.9332964 3.46-2.93.6674384-.0072286 1.2518439-.4495911 1.44-1.09l1.01-3.55c-1.8496246.7989083-3.8452631 1.2041659-5.86 1.19-3.65 0-8.37-.32-13.09-.76h-.01l-2.69 2.16c-.7663633.6028861-1.2126286 1.5249218-1.21 2.5z"/></g></g></svg>