<?xml version="1.0" encoding="UTF-8"?><svg id="a" xmlns="http://www.w3.org/2000/svg" viewBox="0 0 88.22 20"><defs><style>.b{fill:#002e67;}</style></defs><path class="b" d="M18.76,1.91c-.48-.29-1.06-.49-1.73-.6-.66-.11-1.34-.11-2.02-.02-.67,.09-1.33,.28-1.95,.54-.62,.26-1.19,.6-1.69,1-.5,.4-.92,.87-1.23,1.39-.31,.52-.48,1.05-.51,1.56-.03,.51,.07,1,.29,1.44,.23,.45,.58,.84,1.05,1.16,.47,.32,1.05,.57,1.74,.71,.69,.14,1.41,.16,2.13,.07,.72-.09,1.43-.28,2.09-.57,.66-.28,1.26-.65,1.78-1.09,.51-.44,.93-.94,1.22-1.5,.28-.55,.41-1.1,.4-1.61-.01-.51-.16-.99-.43-1.41-.27-.42-.65-.78-1.13-1.07Z"/><path class="b" d="M22.19,3.55c-.47-.71-1.13-1.33-1.95-1.81-.81-.47-1.79-.82-2.9-1-1.1-.18-2.23-.18-3.35-.02-1.11,.15-2.2,.46-3.23,.89-1.03,.43-1.99,.99-2.82,1.66-.84,.67-1.56,1.46-2.11,2.34-.55,.89-.86,1.79-.95,2.65-.09,.88,.04,1.73,.39,2.51,.35,.79,.92,1.49,1.69,2.07,.78,.59,1.77,1.04,2.93,1.3,1.18,.27,2.43,.32,3.67,.17,1.25-.14,2.48-.48,3.63-.98,1.14-.5,2.19-1.15,3.08-1.93,.88-.77,1.59-1.66,2.07-2.64,.47-.96,.67-1.91,.63-2.8-.04-.88-.32-1.7-.79-2.42Zm-1.07,3.82c-.38,.76-.95,1.45-1.64,2.05-.7,.6-1.52,1.11-2.42,1.5-.9,.39-1.86,.65-2.84,.77-.97,.12-1.96,.08-2.89-.11-.92-.2-1.71-.54-2.33-.99-.62-.45-1.08-.99-1.38-1.61-.29-.6-.41-1.27-.35-1.96,.06-.69,.29-1.4,.72-2.1,.42-.7,.99-1.33,1.66-1.86,.67-.54,1.43-.99,2.26-1.33,.82-.35,1.7-.59,2.59-.71,.89-.12,1.8-.12,2.69,.02,.89,.14,1.67,.42,2.31,.8,.65,.38,1.17,.87,1.54,1.44,.37,.57,.58,1.22,.6,1.91,.03,.7-.14,1.45-.52,2.2Z"/><path class="b" d="M24.55,4.13c-.68-1.01-1.64-1.88-2.81-2.56-1.15-.66-2.53-1.14-4.08-1.39-1.53-.24-3.11-.24-4.66-.02-1.54,.21-3.06,.64-4.48,1.23-1.43,.6-2.77,1.38-3.95,2.31-1.19,.94-2.23,2.05-3.02,3.28-.81,1.26-1.29,2.54-1.46,3.79-.18,1.28-.04,2.52,.4,3.66,.45,1.17,1.22,2.23,2.28,3.1,1.09,.89,2.48,1.59,4.14,2.02,1.69,.43,3.5,.53,5.31,.34,1.82-.19,3.62-.68,5.29-1.41,1.67-.73,3.2-1.7,4.48-2.86,1.27-1.15,2.28-2.47,2.95-3.91,.65-1.42,.91-2.81,.82-4.1-.09-1.27-.51-2.45-1.21-3.48Zm-.92,6.09c-.57,1.2-1.44,2.3-2.51,3.26-1.08,.96-2.37,1.77-3.77,2.38-1.41,.61-2.92,1.02-4.44,1.19-1.52,.17-3.04,.1-4.47-.25-1.41-.34-2.6-.91-3.54-1.65-.92-.72-1.59-1.6-2-2.57-.4-.95-.54-2-.41-3.07,.13-1.06,.52-2.15,1.2-3.22,.66-1.06,1.54-2,2.56-2.81,1.01-.8,2.16-1.47,3.39-1.99,1.22-.52,2.53-.88,3.86-1.06,1.33-.18,2.69-.19,4.01,.03,1.33,.21,2.51,.63,3.49,1.2,1,.58,1.8,1.32,2.37,2.18,.58,.88,.93,1.87,.99,2.95,.06,1.09-.16,2.26-.73,3.44Z"/><path class="b" d="M36.9,3.72c-.72-.07-2.32-.1-3.33-.1-2.39,0-3.64,.9-3.64,3.18v9.28c0,.19,.15,.34,.34,.34h.87c.19,0,.34-.15,.34-.34v-5.58h5.24c.19,0,.34-.15,.34-.34v-.65c0-.19-.15-.34-.34-.34h-5.24v-2.37c0-1.3,.29-1.77,2.1-1.77h3.29c.12,0,.19-.09,.19-.21v-.85c0-.1-.07-.22-.17-.24Z"/><path class="b" d="M40.75,3.74h-.94c-.19,0-.31,.15-.31,.32v12.02c0,.19,.14,.34,.31,.34h.94c.19,0,.31-.17,.31-.34V4.07c0-.19-.14-.32-.31-.32Z"/><path class="b" d="M56.45,3.74h-.91c-.19,0-.32,.15-.32,.32v7.82c0,2.3-.46,3.35-2.39,3.35-.29,0-1.2-.05-1.57-.15V4.05c0-.19-.12-.31-.31-.31h-.92c-.19,0-.32,.15-.32,.32V15.07c-.38,.1-1.28,.15-1.57,.15-1.93,0-2.39-1.04-2.39-3.35V4.07c0-.17-.15-.32-.32-.32h-.9c-.19,0-.32,.15-.32,.32v7.82c0,2.97,1.02,4.66,3.62,4.66,.89,0,1.69-.09,2.66-.43,.97,.34,1.79,.43,2.68,.43,2.59,0,3.62-1.69,3.62-4.66V4.07c0-.17-.15-.32-.32-.32Z"/><path class="b" d="M64.09,3.62h-.99c-2.46,0-3.67,.92-3.67,3.53v8.93c0,.17,.14,.34,.31,.34h.94c.19,0,.31-.17,.31-.34v-5.05h5.22v5.05c0,.19,.14,.34,.31,.34h.94c.17,0,.31-.17,.31-.34V7.16c0-2.61-1.23-3.53-3.67-3.53Zm2.12,6.04h-5.22v-2.51c0-1.77,.56-2.17,2.12-2.17h.99c1.55,0,2.12,.39,2.12,2.17v2.51Z"/><path class="b" d="M75.94,10.86c1.55-.41,2.68-1.54,2.68-3.45v-.12c0-2.77-2.08-3.67-4.78-3.67-.99,0-2.27,.05-3,.14-.31,.03-.41,.14-.41,.37v11.95c0,.19,.14,.34,.31,.34h.92c.19,0,.31-.17,.31-.34v-5.02c.9,.03,1.31,.05,1.88,.05h.44l3.06,5.09c.14,.22,.24,.22,.44,.22h1.09c.14,0,.22-.1,.22-.22,0-.05-.02-.1-.05-.15l-3.11-5.19Zm-2.1-1.08c-.39,0-1.13-.02-1.88-.03V5.07c.41-.05,1.35-.05,1.88-.05,2.13,0,3.24,.56,3.24,2.27v.12c0,1.84-1.14,2.37-3.24,2.37Z"/><path class="b" d="M84.74,5.02h3.29c.12,0,.19-.08,.19-.2v-.85c0-.1-.07-.22-.17-.24-.72-.07-2.32-.1-3.33-.1-2.39,0-3.64,.9-3.64,3.18v6.57c0,2.27,1.25,3.18,3.64,3.18,1.01,0,2.68-.02,3.33-.09,.1-.02,.17-.14,.17-.24v-.87c0-.12-.07-.2-.19-.2h-3.29c-1.81,0-2.1-.48-2.1-1.78v-2.87h5.24c.19,0,.34-.15,.34-.34v-.65c0-.19-.15-.34-.34-.34h-5.24v-2.37c0-1.3,.29-1.78,2.1-1.78Z"/></svg>