<svg xmlns="http://www.w3.org/2000/svg" width="512" height="512" viewBox="0 0 60 43"><g id="Page-1" fill="none" fill-rule="evenodd"><g id="009---Pig" fill="#000" fill-rule="nonzero"><path style="fill:#ff68a5" id="Shape" d="m59 33h-15.51c.0466441-.0006845.0898346-.0247209.115-.064-.2651941-.865003-.4608171-1.7498211-.585-2.646-.1567425-1.4103518.1750564-2.8317922.94-4.027.272-.432.512-.852.732-1.263h-1.758c-.3762275.8003851-.8013647 1.5768533-1.273 2.325-.4920339.7547336-.7283311 1.6476845-.674 2.547l.014.139c.0936991.7313745.2612203 1.4513808.5 2.149.094806.2692836.1326055.5553334.111.84h-2.125c.0485873.00061.0941598-.0234944.121-.064-.2945917-.9502458-.5004723-1.9257517-.615-2.914-.087792-1.3254325.2537437-2.6438864.974-3.76.5363355-.8421939 1.0016097-1.7275863 1.391-2.647v-.008c.375973-.8209181.5937782-1.7053699.642-2.607 0-.5522847.4477153-1 1-1s1 .4477153 1 1c-.0140083.6778498-.1199759 1.3506602-.315 2 1.059 0 1.69.014 2.556-.029 4.219-.156 6.441-1.08 7.6-1.906-.8391787-.3237619-1.6411197-.7368017-2.392-1.232-.4600532-.3059658-.5849658-.9269468-.279-1.387s.9269468-.5849658 1.387-.279c1.4599179.9291028 3.1040962 1.5302736 4.819 1.762l.616-3.123c-.7983348-.1783886-1.5832427-.4122904-2.349-.7-1.4274908-.5888614-2.7188344-1.4646198-3.794-2.573l-.1.052c-.5531296.267901-1.1594112.4080225-1.774.41-1.3059979-.0025513-2.5248172-.6558384-3.25-1.742-.7071252-1.007554-.892761-2.29141098-.5-3.458-.569-.341-1.137-.671-1.693-.974-.0418711-.02225061-.0819871-.04765739-.12-.076-9.086-5.061-15.412-5.745-20.412-5.745-8.024 0-14.735 3.24-17.561 7.953h-.01c-2.05856266-.31772334-3.52874967-2.16205187-3.37958537-4.23964142.14916429-2.07758956 1.86774768-3.69297456 3.95058537-3.71335858.55228475 0 1-.44771525 1-1s-.44771525-1-1-1c-3.04083128-.01822495-5.61131169 2.24812823-5.97412316 5.26729283-.36281148 3.01916459 1.59754739 5.82998647 4.55612316 6.53270717-.37707418 1.0251257-.57397705 2.1077531-.582 3.2-.09524833 3.1534099.98301468 6.2299872 3.026 8.634.61419995.6819087.9664412 1.5596769.994 2.477.13069723 2.3107753.40253759 4.6113997.814 6.889h-8.834c-.55228475 0-1 .4477153-1 1s.44771525 1 1 1h58c.5522847 0 1-.4477153 1-1s-.4477153-1-1-1zm-27-28c.5522847 0 1 .44771525 1 1s-.4477153 1-1 1-1-.44771525-1-1 .4477153-1 1-1zm-15.292.052c2.3652302-.70951578 4.8226719-1.06404522 7.292-1.052 1.3721517-.00666018 2.7436093.06311456 4.108.209.5492472.05964676.9461467.55325282.8865 1.1025-.0596468.54924718-.5532528.94614674-1.1025.8865-1.2926529-.13818444-2.5919973-.20428674-3.892-.198-2.2714181-.01183017-4.5320251.31337641-6.708.965-.5282604.16126715-1.0872329-.13623964-1.2485-.6645s.1362396-1.08723285.6645-1.2485zm-1.108 27.948c.1309785.002018.2543523-.0613563.329-.169.0796964-.1112604.0984625-.2550087.05-.383-.527-1.422-1.32-5.19-.636-6.607-.3-.075-.6-.147-.895-.23-.3.237-.612.474-.943.684-.3012719.1862655-.4765984.5223399-.457.876.024.463.077 1.159.191 1.933.115761.9080852.3224658 1.8022423.617 2.669.1394478.3933489.1739151.8162621.1 1.227h-2.356c.1299029.001952.2522055-.0610751.326-.168.0781538-.1097335.0958197-.2514369.047-.377-.5387456-1.6709769-.8498781-3.4069284-.925-5.161-.0645451-1.0800622.4643688-2.109528 1.38-2.686 2.8554868-1.7996192 4.5831131-4.9427503 4.572-8.318v-3.29c0-.5522847.4477153-1 1-1s1 .4477153 1 1v3.29c.0029607 2.8257145-1.0095576 5.5584138-2.853 7.7 2.8512367.6774625 5.7723918 1.0164682 8.703 1.01 2.7576214.0048915 5.5058893-.3207645 8.186-.97-.7114656-1.5799385-1.0652231-3.2975062-1.036-5.03 0-.5522847.4477153-1 1-1s1 .4477153 1 1c-.1101 2.3964125.7558207 4.7351201 2.4 6.482.5274741.585472.8297859 1.3393024.853 2.127.101489 1.8079773.3115342 3.608222.629 5.3910468z"/><path style="fill:#ff68a5" id="Shape" d="m50 37h-40c-.55228475 0-1 .4477153-1 1s.44771525 1 1 1h40c.5522847 0 1-.4477153 1-1s-.4477153-1-1-1z"/><path style="fill:#ff68a5" id="Shape" d="m41 41h-22c-.5522847 0-1 .4477153-1 1s.4477153 1 1 1h22c.5522847 0 1-.4477153 1-1s-.4477153-1-1-1z"/><path style="fill:#ff68a5" id="Shape" d="m48.365 11.118c.5409548.8381261 1.6325495 1.1241543 2.515.659h.006l.057-.028c.5999535-.3708552.9534825-1.0362543.925-1.741.0616114-1.09911461.4309992-2.1587654 1.066-3.058-1.581595.05295846-3.0980733.64262166-4.3 1.672-.7209343.63761368-.837523 1.7194184-.269 2.496z"/><path style="fill:#ff68a5" id="Shape" d="m50.2 5.451c.1938151-.49975647.4409075-.97717788.737-1.424-1.5851361.05151767-3.1056647.64040515-4.312 1.67-.2176261.20380915-.3882475.45257521-.5.729.3933333.222.7883333.45233333 1.185.691.8324827-.75647318 1.8181822-1.32469996 2.89-1.666z"/></g></g></svg>