<svg xmlns="http://www.w3.org/2000/svg" width="512" height="512" viewBox="0 0 57 60"><g id="Page-1" fill="none" fill-rule="evenodd"><g id="065---Plant-Data" fill="#000" fill-rule="nonzero"><path style="fill:#a2a733" id="Shape" d="m3 40 2.872 19.148c.0732795.4896791.49386821.8520063.989.852h16.278c.4951318.0000063.9157205-.3623209.989-.852l2.872-19.148zm6.593 16.989c-.04969048.0070846-.09980759.0107599-.15.011-.494373-.0009826-.91383363-.3630702-.987-.852l-1.8-12c-.06113594-.3566351.07515207-.7184768.35637312-.9461629.28122105-.227686.66350204-.2856953.99960863-.1516856.33610659.1340096.57360301.4391313.62101825.7978485l1.8 12c.0404295.2627726-.0254449.5308281-.1830659.74493s-.39401208.3566237-.6569341.39607z"/><rect style="fill:#a2a733" id="Rectangle-path" width="30" height="6" y="32" rx="1"/><path style="fill:#a2a733" id="Shape" d="m26 21h-4c-2.4604592.0006618-4.7393183 1.2950538-6 3.408v-5.408h3c3.8659932 0 7-3.1340068 7-7 0-.5522847-.4477153-1-1-1h-3c-2.4604592.0006618-4.7393183 1.2950538-6 3.408v-13.408c0-.55228475-.4477153-1-1-1s-1 .44771525-1 1v5.776c-1.1294792-1.73191707-3.0573298-2.77615382-5.125-2.776h-2c-.48324916 0-.875.39175084-.875.875 0 3.38274409 2.74225591 6.125 6.125 6.125h1.875v13.408c-1.2606817-2.1129462-3.5395408-3.4073382-6-3.408h-4c-.55228475 0-1 .4477153-1 1v1c0 3.8659932 3.13400675 7 7 7h10c3.8659932 0 7-3.1340068 7-7v-1c0-.5522847-.4477153-1-1-1z"/><path id="Shape" d="m46 18c.7118154-.0034834 1.4094405-.1993989 2.019-.567l-2.726-2.726c-.1875494-.1874927-.2929434-.4418052-.293-.707v-3.858c-1.9482742.5014457-3.2190002 2.3742805-2.9650329 4.3699561.2539674 1.9956755 1.953264 3.4905487 3.9650329 3.4880439z"/><path id="Shape" d="m50 14c-.0068148-1.8184116-1.2393149-3.4034067-3-3.858v3.444l2.433 2.433c.3676011-.6095595.5635166-1.3071846.567-2.019z"/><path id="Shape" d="m43.05 4h5.9c.5526257-.00070589 1.0804819-.22935917 1.459-.632l1.282-1.368h-11.382l1.282 1.368c.3780976.40323888.9062257.63200995 1.459.632z"/><path id="Shape" d="m56 2h-1.567l-2.565 2.735c-.7567936.80574999-1.8125738 1.2634477-2.918 1.265h-5.9c-1.1057245-.00151476-2.1618284-.45919599-2.919-1.265l-2.564-2.735h-1.567c-.5522847 0-1 .44771525-1 1v32c0 .5522847.4477153 1 1 1h20c.5522847 0 1-.4477153 1-1v-32c0-.55228475-.4477153-1-1-1zm-10 6c2.4149734.00195417 4.5933977 1.45157291 5.5278118 3.6784476.9344141 2.2268747.442671 4.7969166-1.2478118 6.5215524-.014.015-.018.034-.033.049s-.034.019-.049.033c-1.933548 1.8978341-4.8990565 2.2644293-7.2365543.8945805-2.3374979-1.3698488-3.4669769-4.1362382-2.7562005-6.7506557.7107765-2.61441754 3.0854417-4.42814226 5.7947548-4.4259248zm7 25h-13c-1.1045695 0-2-.8954305-2-2v-10c0-.5522847.4477153-1 1-1s1 .4477153 1 1v2h9c.5522847 0 1 .4477153 1 1s-.4477153 1-1 1h-9v2h5c.5522847 0 1 .4477153 1 1s-.4477153 1-1 1h-5v2h13c.5522847 0 1 .4477153 1 1s-.4477153 1-1 1z"/><path id="Shape" d="m56 38h-20c-.3414397-.0033144-.679743-.0655622-1-.184v1.184c0 .5522847.4477153 1 1 1h9v7c0 .5522847-.4477153 1-1 1h-12c-.5522847 0-1 .4477153-1 1s.4477153 1 1 1h12c1.6568542 0 3-1.3431458 3-3v-7h9c.5522847 0 1-.4477153 1-1v-1.184c-.320257.1184378-.6585603.1806856-1 .184z"/></g></g></svg>