<svg xmlns="http://www.w3.org/2000/svg" xmlns:xlink="http://www.w3.org/1999/xlink" id="Capa_1" x="0" y="0" version="1.1" viewBox="0 0 448 448" xml:space="preserve" style="enable-background:new 0 0 448 448"><path style="fill:#dfe9f7" d="M223.992,440c-57.48,0-104.248-46.744-104.248-104.192c0-27.528,9.936-53.68,32.128-76.552V78.784	C151.872,39.096,183.48,8,223.84,8c39.736,0,72.048,32.392,72.048,72.192v180.16c22.128,22.656,32.376,47.6,32.376,75.456	C328.256,393.256,281.496,440,223.992,440z"/><path style="fill:#010101" d="M303.744,257.088V80.192C303.744,35.904,268.16,0,223.84,0c-44.288,0-79.968,34.496-79.968,78.784	V256c-19.744,20.256-32.128,49.28-32.128,79.808C111.744,397.744,162,448,224,448c61.968,0,112.256-50.256,112.256-112.192	C336.256,305.12,323.616,277.376,303.744,257.088z M224,432c-53.072,0-96.256-43.152-96.256-96.192c0-30.96,12.416-53.216,32-73.304	V78.784C159.744,43.576,187.968,16,223.84,16c35.32,0,64.048,28.792,64.048,64.192c0,68.96,0,112.912,0,183.424	c19.976,20.392,32.368,41.792,32.368,72.192C320.256,388.848,277.08,432,224,432z"/><path style="fill:#d64230" d="M255.744,280.88V160h-64v120.88c-19.048,11.088-32,31.496-32,55.12c0,35.344,28.656,64,64,64	s64-28.656,64-64C287.744,312.368,274.792,291.96,255.744,280.88z"/><rect style="fill:#d64230" width="64" height="196" x="191.744" y="64"/></svg>