<svg xmlns="http://www.w3.org/2000/svg" width="512pt" height="512pt" viewBox="-2 0 512 512.001"><path d="m347.15625 339.964844h-67.769531c4.027343 13.882812 6.191406 28.550781 6.191406 43.714844 0 15.601562-2.296875 30.671874-6.546875 44.910156h28.550781c-.011719-.703125-.027343-1.402344-.027343-2.109375 0-34.515625 15.359374-65.511719 39.601562-86.515625zm0 0"/><path d="m267.226562 310.03125h222.183594v-72.375l-129.84375-21.230469v-48.605469l21.867188-17.972656-19.007813-23.128906-32.792969 26.957031v57.851563l-26.558593-4.339844-92.445313-177.503906h-175.273437v190.8125h.019531v36.421875c26.054688-19.15625 58.199219-30.492188 92.945312-30.492188 60.117188 0 112.453126 33.910157 138.90625 83.605469zm-74.757812-250.414062 76.105469 146.132812-203.285157-.261719v-145.871093zm0 0"/><path d="m128.320312 416.699219c18.207032 0 33.019532-14.8125 33.019532-33.019531 0-18.207032-14.8125-33.019532-33.019532-33.019532-18.207031 0-33.019531 14.8125-33.019531 33.019532 0 18.207031 14.8125 33.019531 33.019531 33.019531zm0 0"/><path d="m128.320312 255.359375c-70.753906 0-128.320312 57.566406-128.320312 128.320313 0 70.757812 57.5625 128.320312 128.320312 128.320312 70.753907 0 128.320313-57.5625 128.320313-128.320312 0-70.753907-57.566406-128.320313-128.320313-128.320313zm0 191.277344c-34.714843 0-62.957031-28.242188-62.957031-62.957031 0-34.710938 28.242188-62.953126 62.957031-62.953126 34.710938 0 62.957032 28.242188 62.957032 62.953126 0 34.714843-28.246094 62.957031-62.957032 62.957031zm0 0"/><path d="m422.011719 340.964844c-47.15625 0-85.519531 38.363281-85.519531 85.515625 0 47.15625 38.363281 85.519531 85.519531 85.519531 47.152343 0 85.515625-38.363281 85.515625-85.519531 0-47.152344-38.363282-85.515625-85.515625-85.515625zm0 109.308594c-13.121094 0-23.792969-10.671876-23.792969-23.792969 0-13.117188 10.671875-23.792969 23.792969-23.792969 13.117187 0 23.792969 10.675781 23.792969 23.792969 0 13.121093-10.675782 23.792969-23.792969 23.792969zm0 0"/></svg>