<svg xmlns="http://www.w3.org/2000/svg" width="512" height="512" viewBox="0 0 59 59"><g id="Page-1" fill="none" fill-rule="evenodd"><g id="064---Watering-Can" fill="#000" fill-rule="nonzero"><path id="Shape" d="m48.121 18.505c-.067.888-3.022 4.119-8.882 7.63s-10.081 4.587-10.9 4.228l-.8-1.338c2.9-.329 7.359-2.462 10.748-4.493.884-.529 6.851-4.176 9.043-7.346l.79 1.314z"/><path id="Shape" d="m44.372 12.21 1.774 2.978c-.069.889-3.024 4.119-8.882 7.629-5.842 3.5-10.075 4.584-10.9 4.229l-1.783-3c2.9-.331 7.357-2.461 10.746-4.491.887-.528 6.853-4.174 9.045-7.345z"/><path id="Shape" d="m12.3 32.023c.4385527-1.607249 1.2171-3.1015958 2.283-4.382.4061592 1.631642.4253359 3.3356306.056 4.976-.442519 1.6049966-1.2611277 3.0814405-2.388 4.307-.3411576-1.6177031-.3244336-3.2904414.049-4.901z"/><path id="Shape" d="m17.272 36.935c-1.0004154.581933-2.1184247.9325069-3.272 1.026 1.2159686-1.4038685 2.096229-3.0662407 2.574-4.861.425301-1.8200909.4382844-3.7122442.038-5.538 1.6877777 1.1557326 2.8066381 2.9726544 3.079 5v.018c.0386908.476172.0015623.9554673-.11 1.42-.3458505 1.2479258-1.1775524 2.305113-2.309 2.935z"/><path id="Shape" d="m53.656 27.8-2.586-21.4c-.2578287-2.09307214-1.4082355-3.97237377-3.155-5.154-1.7279948-1.16809724-3.8763979-1.5326659-5.893-1l-11.622 3.077c-3.6828393.95589872-5.9889961 4.60906476-5.268 8.345.4476943 2.2415539 1.1066352 4.4356798 1.968 6.553-2.23 1.809-3.429 3.249-3.6 3.881 1.021.238 5.162-.884 10.8-4.26s8.592-6.5 8.862-7.523c-1.025-.241-5.163.885-10.8 4.261-1.362.82-2.562 1.62-3.616 2.382-.7135928-1.8405687-1.26437-3.7401814-1.646-5.677-.520065-2.7018896 1.1513573-5.34217615 3.816-6.028l11.62-3.08c1.4590704-.38561953 3.0135983-.12203518 4.264.723 1.2677341.85780826 2.1026957 2.22182196 2.29 3.741l2.044 16.917-1.823-3.058c-2.192 3.171-8.16 6.817-9.044 7.347-3.394 2.034-7.86 4.168-10.761 4.493.3380682.6042948.3310743 1.3423777-.0183844 1.9401577-.3494587.5977799-.989186.9659706-1.6816156.9678423-.2116688.0000795-.4219893-.0336798-.623-.1l-5.523-1.431c-.0315509.2581261-.0779612.5142179-.139.767-.0896076.3488075-.208703.6893668-.356 1.018l10.9 3.078c.9211441.2831249 1.7048489.8972645 2.2 1.724l3.957 6.652c.826.341 5.055-.737 10.893-4.235s8.806-6.734 8.885-7.628z"/><rect id="Rectangle-path" width="58" height="5" x="1" y="54" rx="1"/></g></g></svg>